<svg xmlns="http://www.w3.org/2000/svg" id="svg4715" viewBox="0 0 36 26" height="26" width="36"><g transform="translate(0 -1026.36)" id="layer1"><path id="path10" d="M27.51 1028.608c-3.8 0-6.7 2.5-7.8 6.5-1.8-2.8-3.2-6-4-8.7h-4v10.6c0 2.1-1.7 3.8-3.8 3.8-2.1 0-3.8-1.7-3.8-3.8v-10.6h-4v10.6c0 4.4 3.5 7.9 7.8 7.9s7.8-3.5 7.8-7.9v-1.8c.8 1.6 1.8 3.3 2.9 4.8l-2.5 11.7h4.1l1.8-8.5c1.6 1 3.4 1.6 5.5 1.6 4.4 0 8-3.6 8-8.2 0-4.4-3.6-8-8-8zm0 12.1c-1.6 0-3.2-.7-4.5-1.8l.4-1.6v-.1c.3-1.7 1.2-4.6 4.2-4.6 2.2 0 4 1.8 4 4-.1 2.3-2 4.1-4.1 4.1z" fill="#6fda44"/></g></svg>