<svg xmlns="http://www.w3.org/2000/svg" preserveAspectRatio="xMidYMid" width="180.875" height="19.719" viewBox="0 0 180.875 19.719" id="svg2"><defs id="defs4"><style id="style6">.cls-1{fill:#fff;fill-rule:evenodd}</style></defs><path id="path4150" d="M53.916 4.01c-.117-.528-.519-.791-1.206-.791-.319 0-.66.034-1.025.102l-.464 3.56c1.498.254 2.376-.168 2.637-1.265.075-.316.112-.619.112-.91 0-.292-.018-.524-.054-.696zm-1.928 3.525h-.376c-.14 0-.295-.006-.464-.019l-.249 2.109.957.142-.039.424h-2.651l.043-.42.723-.146.786-6.299-.649-.112.058-.493h1.236l1.391-.083c1.468 0 2.212.634 2.232 1.904v.083c0 .882-.293 1.594-.879 2.134-.56.517-1.266.776-2.119.776zm7.507 2.754c-.423 0-.623-.213-.601-.64.017-.279.055-.585.115-.917.06-.332.103-.569.127-.709a26.8 26.8 0 0 1 .086-.461c.032-.168.061-.339.088-.515.065-.397.097-.708.097-.933 0-.224-.015-.387-.044-.488a.526.526 0 0 0-.122-.23c-.078-.074-.194-.112-.349-.112-.155 0-.305.032-.452.095a2.164 2.164 0 0 0-.439.262 3.68 3.68 0 0 0-.835.888l-.488 3.662h-.948l.943-7.236-.576-.21.083-.405 1.298-.205.254.131-.464 3.477c.43-.576.912-.955 1.446-1.138.185-.061.368-.092.549-.092.181 0 .339.025.474.075.135.051.25.134.344.252.202.241.303.623.303 1.147 0 .29-.036.619-.108.986l-.141.753-.127.776c-.088.553-.12.884-.095.991.024.108.059.161.105.161.113 0 .288-.091.522-.273l.151.254a1.12 1.12 0 0 1-.337.332c-.315.215-.602.322-.859.322zm5.29-5.068a.949.949 0 0 0-.473-.113.998.998 0 0 0-.501.13 1.424 1.424 0 0 0-.405.351c-.119.149-.222.32-.31.515-.241.551-.361 1.171-.361 1.861 0 .84.208 1.377.625 1.611a.92.92 0 0 0 .473.117.997.997 0 0 0 .501-.129c.151-.086.286-.203.405-.352.119-.148.222-.32.31-.515.241-.55.361-1.17.361-1.86 0-.84-.208-1.379-.625-1.616zm-.351 4.931a2.283 2.283 0 0 1-.803.137 2.01 2.01 0 0 1-.794-.151c-.742-.316-1.113-1.042-1.113-2.178 0-.869.252-1.651.757-2.344a2.677 2.677 0 0 1 1.235-.962c.244-.094.512-.141.803-.141.292 0 .556.05.794.151.237.101.439.247.605.439.342.401.513.969.513 1.704 0 .902-.252 1.695-.757 2.378a2.776 2.776 0 0 1-1.24.967zm6.023-4.922h-1.265l-.405 3.057c-.056.394-.083.66-.083.798 0 .139.005.237.017.296a.277.277 0 0 0 .061.136c.052.062.136.093.251.093.116 0 .218-.014.306-.041a2.79 2.79 0 0 0 .713-.369l.087.381c-.221.27-.587.483-1.098.64a1.544 1.544 0 0 1-.435.068c-.596 0-.893-.291-.893-.874v-.054c0-.101.019-.299.058-.596l.444-3.535h-.585l.097-.424.601-.23c.185-.221.402-.654.649-1.299h.464l-.166 1.275h1.279l-.097.678zm3.698-.009a.949.949 0 0 0-.473-.113.998.998 0 0 0-.501.13 1.424 1.424 0 0 0-.405.351c-.119.149-.222.32-.31.515-.241.551-.361 1.171-.361 1.861 0 .84.208 1.377.625 1.611a.92.92 0 0 0 .473.117 1 1 0 0 0 .501-.129c.151-.086.286-.203.405-.352.119-.148.222-.32.31-.515.241-.55.361-1.17.361-1.86 0-.84-.208-1.379-.625-1.616zm-.351 4.931a2.283 2.283 0 0 1-.803.137 2.01 2.01 0 0 1-.794-.151c-.742-.316-1.113-1.042-1.113-2.178 0-.869.252-1.651.757-2.344a2.677 2.677 0 0 1 1.235-.962c.244-.094.512-.141.803-.141.292 0 .556.05.794.151.237.101.439.247.605.439.342.401.513.969.513 1.704 0 .902-.252 1.695-.757 2.378a2.776 2.776 0 0 1-1.24.967zm5.588-4.961a1.776 1.776 0 0 0-.732-.019.821.821 0 0 0-.279.107c-.218.134-.327.345-.327.635 0 .358.259.734.777 1.128.332.257.564.47.698.64.263.341.395.666.395.974 0 .307-.053.558-.158.752a1.465 1.465 0 0 1-.428.485c-.358.264-.807.396-1.347.396-.482 0-.889-.06-1.221-.181a.694.694 0 0 1-.215-.107l.176-.737c.221.153.518.263.889.332.133.022.262.034.388.034.125 0 .245-.007.359-.02a.939.939 0 0 0 .317-.093c.218-.107.327-.304.327-.59 0-.336-.18-.65-.542-.943a7.687 7.687 0 0 0-.3-.231 4.19 4.19 0 0 1-.32-.264 2.818 2.818 0 0 1-.337-.369c-.254-.338-.381-.655-.381-.95 0-.294.052-.539.154-.735.103-.195.24-.361.413-.498.361-.283.799-.424 1.313-.424.384 0 .679.025.884.075.205.051.327.086.366.105l-.185.816c-.085-.124-.313-.23-.684-.318zm5.647 5.098c-.423 0-.623-.213-.601-.64.017-.279.055-.585.115-.917.06-.332.103-.569.127-.709a26.8 26.8 0 0 1 .086-.461c.032-.168.061-.339.087-.515.066-.397.098-.708.098-.933 0-.224-.015-.387-.044-.488a.526.526 0 0 0-.122-.23c-.078-.074-.194-.112-.349-.112-.155 0-.305.032-.452.095a2.164 2.164 0 0 0-.439.262 3.68 3.68 0 0 0-.835.888l-.488 3.662h-.948l.943-7.236-.576-.21.083-.405 1.298-.205.254.131-.464 3.477c.43-.576.912-.955 1.446-1.138.185-.061.368-.092.549-.092.181 0 .339.025.474.075a.795.795 0 0 1 .344.252c.202.241.303.623.303 1.147 0 .29-.036.619-.108.986l-.141.753-.127.776c-.088.553-.12.884-.096.991.025.108.06.161.105.161.114 0 .288-.091.523-.273l.151.254a1.12 1.12 0 0 1-.337.332c-.315.215-.602.322-.859.322zm5.29-5.068a.949.949 0 0 0-.473-.113.998.998 0 0 0-.501.13 1.424 1.424 0 0 0-.405.351c-.119.149-.222.32-.31.515-.241.551-.361 1.171-.361 1.861 0 .84.208 1.377.625 1.611a.92.92 0 0 0 .473.117 1 1 0 0 0 .501-.129c.151-.086.286-.203.405-.352.119-.148.222-.32.31-.515.241-.55.361-1.17.361-1.86 0-.84-.208-1.379-.625-1.616zm-.351 4.931a2.283 2.283 0 0 1-.803.137 2.01 2.01 0 0 1-.794-.151c-.742-.316-1.113-1.042-1.113-2.178 0-.869.252-1.651.757-2.344a2.677 2.677 0 0 1 1.235-.962c.244-.094.512-.141.803-.141.292 0 .556.05.794.151.237.101.439.247.605.439.342.401.513.969.513 1.704 0 .902-.252 1.695-.757 2.378a2.776 2.776 0 0 1-1.24.967zm6.56-4.558c-.147-.255-.347-.383-.601-.383-.374 0-.744.181-1.108.542a2.347 2.347 0 0 0-.259.293l-.483 3.476c.169.118.386.176.652.176.265 0 .49-.046.676-.139a1.71 1.71 0 0 0 .495-.376c.145-.158.27-.339.376-.542.106-.203.193-.416.262-.637.139-.443.21-.891.21-1.345 0-.454-.074-.809-.22-1.065zm-.977 4.529a2.23 2.23 0 0 1-.815.166 3.62 3.62 0 0 1-.757-.078l-.347 2.519h-.927l.991-7.329-.532-.249.087-.385 1.28-.254.229.117-.088.6c.397-.478.869-.717 1.416-.717.547 0 .965.2 1.255.6.27.375.406.879.406 1.514 0 .833-.274 1.631-.821 2.392-.374.525-.833.892-1.377 1.104zm14.238-6.802l-2.915 6.919h-.986l-.566-5.029-1.89 5.029h-.982l-.957-6.919-.6-.107.058-.493h2.276l-.054.493-.762.088.577 4.76.175 1.299.274-.967 1.684-4.497-.068-.59-.576-.093.054-.493h2.324l-.098.493-.732.097.512 4.751.088 1.299.362-1.113 1.987-4.922-.64-.112.054-.493h2.06l-.073.493-.586.107zm3.269 1.936a.583.583 0 0 0-.432-.173.96.96 0 0 0-.471.115c-.14.076-.266.178-.379.305a2.404 2.404 0 0 0-.302.434c-.09.163-.167.331-.232.503a4.524 4.524 0 0 0-.235.967 3.064 3.064 0 0 0 1.407-.439c.328-.189.563-.42.703-.694.075-.14.112-.315.112-.527 0-.212-.057-.375-.171-.491zm.537 1.716a3.082 3.082 0 0 1-.639.423 5.148 5.148 0 0 1-.718.295c-.485.163-.903.248-1.255.254-.006.069-.01.132-.01.191 0 .058.002.128.005.21.003.081.02.184.049.307.029.124.07.244.122.359.052.116.119.218.2.305.183.196.41.293.684.293.596 0 1.149-.237 1.66-.712l.225.405c-.163.234-.414.446-.752.634-.407.235-.804.352-1.189.352-.386 0-.703-.062-.95-.185-.488-.241-.811-.64-.967-1.197a2.331 2.331 0 0 1-.097-.571c0-.14.002-.292.007-.457a3.73 3.73 0 0 1 .112-.691c.07-.296.167-.577.291-.842.123-.265.271-.51.442-.735.171-.224.362-.418.573-.581.45-.345.935-.517 1.455-.517.677 0 1.11.246 1.299.737.059.15.088.331.088.542 0 .212-.058.421-.176.627-.117.207-.27.392-.459.554zm5.33-1.379c-.147-.255-.347-.383-.601-.383-.273 0-.555.106-.844.317a2.359 2.359 0 0 0-.591.615l-.45 3.35c.173.137.397.205.672.205s.505-.046.691-.139c.185-.093.351-.218.495-.376a2.49 2.49 0 0 0 .376-.542c.106-.203.193-.416.262-.637.14-.443.21-.891.21-1.345 0-.454-.074-.809-.22-1.065zm-1.929 4.695c-.351 0-.729-.073-1.133-.22l-.478.22.967-7.344-.464-.21.102-.41 1.172-.19.249.131-.41 3.052c.283-.364.625-.61 1.025-.737.144-.046.327-.068.55-.068.223 0 .438.053.647.158.208.106.381.254.517.442.27.375.406.879.406 1.514 0 .833-.274 1.631-.821 2.392-.605.847-1.382 1.27-2.329 1.27zm6.721-5.098a1.776 1.776 0 0 0-.732-.019.808.808 0 0 0-.278.107c-.219.134-.328.345-.328.635 0 .358.259.734.777 1.128.332.257.564.47.698.64.264.341.395.666.395.974 0 .307-.052.558-.158.752a1.462 1.462 0 0 1-.427.485c-.359.264-.808.396-1.348.396-.482 0-.889-.06-1.221-.181a.706.706 0 0 1-.215-.107l.176-.737c.221.153.518.263.889.332.133.022.263.034.388.034s.245-.007.359-.02a.932.932 0 0 0 .317-.093c.218-.107.327-.304.327-.59 0-.336-.18-.65-.542-.943a7.687 7.687 0 0 0-.3-.231 4.394 4.394 0 0 1-.32-.264 2.818 2.818 0 0 1-.337-.369c-.254-.338-.381-.655-.381-.95 0-.294.052-.539.154-.735.103-.195.24-.361.413-.498.361-.283.799-.424 1.313-.424.384 0 .679.025.884.075.205.051.327.086.366.105l-.185.816c-.085-.124-.313-.23-.684-.318zm3.787-.561l-.679 4.648c-.01.062-.015.116-.015.161 0 .14.041.21.122.21.121 0 .295-.109.523-.327l.156.259c-.163.254-.421.461-.776.62a1.03 1.03 0 0 1-.42.088c-.404 0-.606-.185-.606-.557 0-.221.054-.667.162-1.338l.454-2.988-.723-.249.088-.395 1.475-.249.239.117zm-.366-1.216a.556.556 0 0 1-.235-.049.518.518 0 0 1-.337-.513c0-.195.08-.366.24-.512.149-.14.288-.21.415-.21s.227.015.302.044c.228.094.342.258.342.493a.739.739 0 0 1-.229.532.697.697 0 0 1-.498.215zm4.587 1.816h-1.265l-.405 3.057c-.055.394-.083.66-.083.798 0 .139.006.237.017.296a.277.277 0 0 0 .061.136c.052.062.136.093.252.093.115 0 .217-.014.305-.041a2.747 2.747 0 0 0 .713-.369l.087.381c-.221.27-.587.483-1.098.64a1.544 1.544 0 0 1-.435.068c-.595 0-.893-.291-.893-.874v-.054c0-.101.019-.299.058-.596l.445-3.535h-.586l.097-.424.601-.23c.185-.221.402-.654.649-1.299h.464l-.166 1.275h1.28l-.098.678zm3.728.027a.583.583 0 0 0-.432-.173.962.962 0 0 0-.472.115c-.14.076-.266.178-.378.305a2.459 2.459 0 0 0-.303.434 4.006 4.006 0 0 0-.232.503 4.461 4.461 0 0 0-.234.967 3.06 3.06 0 0 0 1.406-.439c.329-.189.563-.42.703-.694.075-.14.113-.315.113-.527 0-.212-.057-.375-.171-.491zM136 6.973a3.09 3.09 0 0 1-.64.423 5.099 5.099 0 0 1-.718.295c-.485.163-.903.248-1.254.254-.007.069-.01.132-.01.191 0 .058.001.128.005.21.003.081.019.184.049.307.029.124.069.244.122.359.052.116.118.218.2.305.182.196.41.293.683.293.596 0 1.149-.237 1.661-.712l.224.405c-.163.234-.413.446-.752.634-.407.235-.803.352-1.189.352s-.702-.062-.949-.185c-.489-.241-.811-.64-.967-1.197a2.342 2.342 0 0 1-.098-.571c0-.14.003-.292.007-.457.005-.164.043-.394.113-.691.07-.296.166-.577.29-.842.124-.265.271-.51.442-.735a3.1 3.1 0 0 1 .574-.581c.449-.345.934-.517 1.455-.517.677 0 1.11.246 1.299.737.058.15.088.331.088.542 0 .212-.059.421-.176.627-.117.207-.27.392-.459.554zm7.124-1.743h-1.265l-.405 3.057c-.056.394-.083.66-.083.798 0 .139.005.237.017.296a.277.277 0 0 0 .061.136c.052.062.136.093.251.093.116 0 .218-.014.306-.041a2.733 2.733 0 0 0 .712-.369l.088.381c-.221.27-.587.483-1.098.64a1.544 1.544 0 0 1-.435.068c-.596 0-.893-.291-.893-.874v-.054c0-.101.019-.299.058-.596l.445-3.535h-.586l.097-.424.601-.23c.185-.221.402-.654.649-1.299h.464l-.166 1.275h1.279l-.097.678zm3.728.027a.583.583 0 0 0-.432-.173.962.962 0 0 0-.472.115c-.14.076-.266.178-.378.305a2.459 2.459 0 0 0-.303.434 4.006 4.006 0 0 0-.232.503 4.461 4.461 0 0 0-.234.967 3.06 3.06 0 0 0 1.406-.439c.329-.189.563-.42.703-.694.075-.14.113-.315.113-.527 0-.212-.057-.375-.171-.491zm.537 1.716a3.09 3.09 0 0 1-.64.423 5.148 5.148 0 0 1-.718.295c-.485.163-.903.248-1.255.254a2.204 2.204 0 0 0-.009.191c0 .058.001.128.005.21a2.024 2.024 0 0 0 .17.666c.052.116.119.218.201.305.182.196.41.293.683.293.596 0 1.149-.237 1.66-.712l.225.405c-.163.234-.413.446-.752.634-.407.235-.803.352-1.189.352s-.702-.062-.95-.185c-.488-.241-.81-.64-.966-1.197a2.294 2.294 0 0 1-.098-.571c0-.14.002-.292.007-.457.005-.164.043-.394.113-.691.07-.296.166-.577.29-.842.124-.265.271-.51.442-.735a3.1 3.1 0 0 1 .574-.581c.449-.345.934-.517 1.455-.517.677 0 1.11.246 1.299.737.058.15.088.331.088.542 0 .212-.059.421-.176.627a2.085 2.085 0 0 1-.459.554zm8.669 3.316c-.387 0-.581-.19-.581-.571 0-.274.039-.664.117-1.172l.161-1.001c.108-.671.162-1.132.162-1.385 0-.252-.014-.428-.042-.529a.536.536 0 0 0-.11-.225c-.068-.075-.173-.112-.315-.112a.987.987 0 0 0-.415.093 2.063 2.063 0 0 0-.412.254 3.916 3.916 0 0 0-.787.849c-.029.355-.079.767-.151 1.236l-.312 2.465h-.962l.273-2.163.073-.464c.085-.592.127-1.038.127-1.337 0-.3-.011-.5-.034-.601a.53.53 0 0 0-.102-.23c-.069-.074-.183-.112-.342-.112-.16 0-.312.031-.457.093-.145.062-.29.148-.437.259a4.025 4.025 0 0 0-.835.869l-.498 3.686h-.952l.635-4.702-.484-.288.088-.434 1.182-.254.234.117-.092 1.035c.432-.531.916-.884 1.45-1.06.179-.061.352-.092.52-.092.167 0 .314.021.439.063a.797.797 0 0 1 .325.205c.185.192.295.505.327.938.426-.56.892-.931 1.397-1.114.175-.061.349-.092.52-.092.17 0 .323.027.459.083a.872.872 0 0 1 .349.263c.208.251.312.627.312 1.128 0 .258-.032.575-.097.952-.199 1.215-.306 1.937-.32 2.168-.015.232-.016.38-.003.445.013.065.043.097.088.097.121 0 .298-.107.532-.322l.152.254a1.41 1.41 0 0 1-.342.356c-.303.235-.583.352-.84.352zm5.813-4.695c-.147-.255-.347-.383-.601-.383-.374 0-.743.181-1.108.542a2.347 2.347 0 0 0-.259.293l-.483 3.476c.169.118.386.176.652.176.265 0 .49-.046.676-.139a1.7 1.7 0 0 0 .496-.376 2.52 2.52 0 0 0 .375-.542c.106-.203.193-.416.262-.637.14-.443.21-.891.21-1.345 0-.454-.074-.809-.22-1.065zm-.977 4.529a2.23 2.23 0 0 1-.815.166c-.26 0-.513-.026-.757-.078l-.346 2.519h-.928l.991-7.329-.532-.249.088-.385 1.279-.254.229.117-.087.6c.397-.478.869-.717 1.416-.717.546 0 .965.2 1.254.6.271.375.406.879.406 1.514 0 .833-.274 1.631-.821 2.392-.374.525-.833.892-1.377 1.104zm4.48-.474c.121 0 .297-.107.528-.322l.151.254a1.208 1.208 0 0 1-.327.352c-.316.237-.585.356-.808.356-.223 0-.379-.05-.469-.151-.09-.101-.134-.27-.134-.508 0-.127.009-.252.029-.376l.899-6.299-.601-.21.102-.405 1.28-.205.234.131-.986 7.012c-.036.248-.002.371.102.371zm4.758-4.541a1.53 1.53 0 0 0-.666.137c-.19.091-.361.213-.51.366-.15.153-.279.33-.388.53-.11.2-.2.41-.271.627-.14.427-.21.809-.21 1.145 0 .337.017.601.053.792.036.19.088.35.157.48.139.274.333.411.581.411.416 0 .804-.186 1.162-.557a2.52 2.52 0 0 0 .254-.303l.449-3.467c-.153-.107-.357-.161-.611-.161zm1.219 4.541c.07 0 .197-.074.383-.224l.151.259a.964.964 0 0 1-.297.302c-.29.202-.554.303-.791.303-.414 0-.621-.197-.621-.591V9.63l.01-.103c-.423.508-.919.762-1.489.762-.527 0-.933-.199-1.216-.596-.264-.371-.395-.875-.395-1.513 0-.524.125-1.065.376-1.621.416-.931 1.035-1.556 1.855-1.876a2.45 2.45 0 0 1 .908-.17c.319 0 .65.057.992.17l.581-.166-.64 4.761c-.016.134-.006.229.032.286a.18.18 0 0 0 .161.085zm4.634-4.419h-1.265l-.405 3.057c-.056.394-.083.66-.083.798 0 .139.005.237.017.296a.268.268 0 0 0 .061.136c.052.062.136.093.251.093.116 0 .217-.014.305-.041a2.733 2.733 0 0 0 .713-.369l.088.381c-.221.27-.588.483-1.099.64a1.538 1.538 0 0 1-.434.068c-.596 0-.894-.291-.894-.874v-.054c0-.101.02-.299.059-.596l.444-3.535h-.586l.098-.424.601-.23c.185-.221.402-.654.649-1.299h.464l-.166 1.275h1.279l-.097.678zm3.727.027a.583.583 0 0 0-.432-.173.96.96 0 0 0-.471.115c-.14.076-.266.178-.378.305a2.358 2.358 0 0 0-.303.434c-.09.163-.167.331-.232.503a4.461 4.461 0 0 0-.234.967 3.06 3.06 0 0 0 1.406-.439c.329-.189.563-.42.703-.694.075-.14.112-.315.112-.527 0-.212-.057-.375-.171-.491zm.997 1.162a2.104 2.104 0 0 1-.459.554 3.116 3.116 0 0 1-.64.423 5.148 5.148 0 0 1-.718.295c-.485.163-.903.248-1.255.254-.006.069-.01.132-.01.191 0 .058.002.128.005.21.004.081.02.184.049.307.029.124.07.244.122.359.052.116.119.218.2.305a.896.896 0 0 0 .684.293c.596 0 1.149-.237 1.66-.712l.225.405c-.163.234-.414.446-.752.634-.407.235-.803.352-1.189.352s-.703-.062-.95-.185c-.488-.241-.81-.64-.967-1.197a2.331 2.331 0 0 1-.097-.571c0-.14.002-.292.007-.457a3.73 3.73 0 0 1 .112-.691c.07-.296.167-.577.291-.842.124-.265.271-.51.442-.735.171-.224.362-.418.573-.581.45-.345.935-.517 1.456-.517.677 0 1.11.246 1.298.737.059.15.088.331.088.542 0 .212-.058.421-.175.627z" fill="#fff"/><path id="path8" d="M8.636 2.289c-.211-.164-.492-.246-.844-.246-.609 0-1.195.379-1.757 1.137l-1.242 8.883c.288.109.732.164 1.33.164.597 0 1.121-.206 1.57-.616.449-.41.81-.951 1.084-1.623.531-1.281.797-2.918.797-4.91 0-1.383-.313-2.312-.938-2.789zm2.836 9.012c-1.484 1.703-3.398 2.554-5.742 2.554-.406 0-.801-.035-1.184-.105l-.832 5.965H-.012L2.332 2.113.96 1.527l.223-.925 4.606-.61.609.282-.117.984C7.164.414 8.249-.008 9.539-.008c2.023 0 3.3.973 3.832 2.918.171.633.257 1.459.257 2.479 0 1.019-.187 2.062-.562 3.129-.375 1.066-.906 1.994-1.594 2.783zm10.313-9.692c-1.461 0-2.305 1.758-2.532 5.274.828-.055 1.594-.383 2.297-.985.797-.687 1.196-1.574 1.196-2.66s-.321-1.629-.961-1.629zm3.55 4.407c-.375.39-.81.728-1.306 1.013a8.347 8.347 0 0 1-1.565.698 10.625 10.625 0 0 1-3.211.562c0 1.219.196 2.102.586 2.648.391.547.926.821 1.606.821 1.39 0 2.555-.61 3.492-1.828l.75 1.207c-.727 1.133-1.883 1.945-3.469 2.437a6.562 6.562 0 0 1-1.945.281c-.688 0-1.279-.068-1.775-.205a4.848 4.848 0 0 1-1.319-.568 3.886 3.886 0 0 1-.972-.861 4.847 4.847 0 0 1-.657-1.084c-.336-.766-.504-1.618-.504-2.555v-.07c0-2.445.731-4.477 2.192-6.094 1.445-1.617 3.25-2.426 5.414-2.426 1.875 0 3.074.59 3.598 1.77.171.398.257.863.257 1.394 0 .532-.101 1.043-.304 1.536a4.249 4.249 0 0 1-.868 1.324zm10.969 4.101c.281.571.525.948.733 1.131.207.184.42.275.638.275.219 0 .539-.148.961-.445l.528.985c-.415.648-1.219 1.167-2.415 1.558-.476.156-1.019.234-1.628.234-1.094 0-1.789-.41-2.086-1.23L31.874 9.25l-2.73 4.371h-3.691l5.425-6.879-1.933-3.679-.199-.34c-.235-.422-.473-.633-.715-.633-.375 0-.688.074-.938.222l-.457-.984c.375-.484 1.109-.871 2.203-1.16.414-.117.907-.176 1.477-.176 1.203 0 1.934.41 2.191 1.231l.996 2.953 2.602-4.09h3.574l-5.238 6.656 1.863 3.375z" fill="#e7526b"/></svg>